<svg width="37" height="37" viewBox="0 0 37 37" fill="none" xmlns="http://www.w3.org/2000/svg">
<path d="M18.5 37C28.7173 37 37 28.7173 37 18.5C37 8.28273 28.7173 0 18.5 0C8.28273 0 0 8.28273 0 18.5C0 28.7173 8.28273 37 18.5 37Z" fill="#039BE5"/>
<path d="M8.46533 18.0992L26.3024 11.2219C27.1303 10.9228 27.8533 11.4238 27.5851 12.6757L27.5866 12.6741L24.5495 26.9823C24.3245 27.9967 23.7217 28.2434 22.8784 27.7655L18.2534 24.3569L16.0226 26.506C15.7759 26.7526 15.5678 26.9607 15.0899 26.9607L15.4182 22.254L23.9899 14.5102C24.363 14.1819 23.9067 13.9969 23.4149 14.3237L12.8221 20.9929L8.25566 19.5684C7.26437 19.2539 7.24279 18.5772 8.46533 18.0992Z" fill="white"/>
</svg>
